<?xml version="1.0" standalone="no"?><!DOCTYPE svg PUBLIC "-//W3C//DTD SVG 1.1//EN" "http://www.w3.org/Graphics/SVG/1.1/DTD/svg11.dtd"><svg t="1506659240687" class="icon" style="" viewBox="0 0 1260 1024" version="1.1" xmlns="http://www.w3.org/2000/svg" p-id="1954" xmlns:xlink="http://www.w3.org/1999/xlink" width="246.09375" height="200"><defs><style type="text/css"></style></defs><path d="M0 78.651077C0 35.209846 34.934154 0 79.005538 0H275.692308L216.615385 256l256 157.538462-118.153847 196.923076 275.692308 236.307693-157.538461-236.307693 177.230769-216.615384L433.230769 196.923077l137.846154-196.923077h610.185846C1224.861538 0 1260.307692 35.249231 1260.307692 78.651077v866.697846C1260.307692 988.790154 1225.255385 1024 1181.459692 1024H78.848A78.769231 78.769231 0 0 1 0 945.348923V78.651077zM984.615385 393.846154a118.153846 118.153846 0 1 0 0-236.307692 118.153846 118.153846 0 0 0 0 236.307692z" p-id="1955" fill="#cdcdcd"></path></svg>